<svg aria-hidden="true" style="position: absolute; width: 0; height: 0; overflow: hidden;" version="1.1" xmlns="http://www.w3.org/2000/svg" xmlns:xlink="http://www.w3.org/1999/xlink">
<defs>
<symbol id="icon-telegram" viewBox="0 0 37 32">
<path d="M26.444 7.642c-0.089-0.086-0.196-0.143-0.312-0.165s-0.234-0.009-0.343 0.039l-14.476 6.345c-0.205 0.089-0.379 0.251-0.495 0.46s-0.168 0.456-0.149 0.701c0.020 0.246 0.11 0.477 0.257 0.66s0.344 0.308 0.56 0.355l3.751 0.825v4.684c-0.001 0.255 0.067 0.505 0.194 0.716s0.308 0.375 0.52 0.47c0.211 0.097 0.443 0.12 0.666 0.067s0.427-0.18 0.584-0.365l1.809-2.101 2.869 2.813c0.207 0.206 0.474 0.319 0.751 0.32 0.121-0 0.242-0.021 0.357-0.063 0.189-0.067 0.358-0.188 0.492-0.351s0.227-0.363 0.27-0.579l2.899-14.127c0.026-0.127 0.020-0.26-0.016-0.384s-0.102-0.235-0.191-0.32zM22.077 10.522l-6.399 5.133-3.543-0.778 9.942-4.354zM16.381 21.547v-3.798l1.771 1.739-1.771 2.059zM22.634 22.187l-5.906-5.8 8.5-6.823-2.594 12.623z"></path>
</symbol>
<symbol id="icon-viber" viewBox="0 0 38 32">
<path d="M25.040 9.558c-0.418-0.366-2.112-1.531-5.888-1.547 0 0-4.452-0.253-6.62 1.634-1.206 1.144-1.631 2.822-1.677 4.899s-0.102 5.971 3.855 7.027h0.003l-0.003 1.612c0 0-0.026 0.653 0.428 0.784 0.547 0.162 0.87-0.334 1.394-0.869 0.287-0.294 0.682-0.725 0.982-1.053 2.709 0.216 4.788-0.278 5.025-0.35 0.547-0.169 3.641-0.544 4.142-4.437 0.521-4.018-0.25-6.555-1.641-7.702zM25.498 16.966c-0.425 3.25-2.933 3.456-3.394 3.596-0.198 0.059-2.026 0.491-4.323 0.35 0 0-1.713 1.959-2.247 2.468-0.175 0.166-0.366 0.15-0.362-0.178 0-0.216 0.013-2.678 0.013-2.678-0.003 0-0.003 0 0 0-3.354-0.881-3.157-4.196-3.12-5.931s0.382-3.156 1.404-4.112c1.835-1.578 5.615-1.344 5.615-1.344 3.193 0.012 4.722 0.925 5.078 1.231 1.176 0.956 1.776 3.243 1.338 6.596zM20.918 14.442c0.013 0.269-0.412 0.287-0.425 0.019-0.036-0.687-0.376-1.022-1.074-1.059-0.283-0.016-0.257-0.419 0.023-0.403 0.919 0.047 1.43 0.547 1.476 1.444zM21.587 14.795c0.033-1.325-0.84-2.362-2.498-2.478-0.28-0.019-0.25-0.422 0.030-0.403 1.911 0.131 2.929 1.378 2.893 2.89-0.003 0.269-0.432 0.256-0.425-0.009zM23.136 15.214c0.003 0.269-0.425 0.272-0.425 0.003-0.020-2.546-1.809-3.934-3.98-3.95-0.28-0.003-0.28-0.403 0-0.403 2.428 0.016 4.383 1.606 4.406 4.349zM22.763 18.279v0.006c-0.356 0.594-1.021 1.25-1.707 1.041l-0.007-0.009c-0.695-0.184-2.333-0.984-3.368-1.765-0.534-0.4-1.021-0.872-1.397-1.325-0.339-0.403-0.682-0.881-1.015-1.456-0.702-1.203-0.857-1.74-0.857-1.74-0.221-0.65 0.468-1.281 1.097-1.619h0.007c0.303-0.15 0.593-0.1 0.788 0.122 0 0 0.409 0.462 0.583 0.691 0.165 0.212 0.386 0.553 0.501 0.744 0.201 0.341 0.076 0.687-0.122 0.831l-0.395 0.3c-0.201 0.153-0.175 0.437-0.175 0.437s0.587 2.103 2.778 2.634c0 0 0.3 0.025 0.461-0.166l0.316-0.375c0.152-0.188 0.517-0.306 0.876-0.116 0.484 0.259 1.101 0.662 1.509 1.028 0.231 0.178 0.283 0.45 0.125 0.737z"></path>
</symbol>
<symbol id="icon-youtube" viewBox="0 0 37 32">
<path d="M24.208 19.722h-1.042v-0.522c0-0.278 0.167-0.417 0.5-0.417h0.042c0.333 0 0.5 0.139 0.5 0.417v0.522zM20.25 18.609c-0.333 0-0.5 0.116-0.5 0.348v2.47c0 0.232 0.167 0.348 0.5 0.348s0.5-0.116 0.5-0.348v-2.47c0-0.232-0.167-0.348-0.5-0.348zM26.667 17.217v4.73c0 0.58-0.257 1.067-0.771 1.461s-1.132 0.591-1.854 0.591h-10.75c-0.722 0-1.34-0.197-1.854-0.591s-0.771-0.881-0.771-1.461v-4.73c0-0.557 0.257-1.038 0.771-1.443s1.132-0.609 1.854-0.609h10.75c0.722 0 1.34 0.203 1.854 0.609s0.771 0.887 0.771 1.443zM14 22.47v-4.974h1.333v-0.73l-3.542-0.035v0.73h1.083v5.009h1.125zM18 18.226h-1.125v3.304c-0.056 0.116-0.153 0.191-0.292 0.226s-0.25-0.029-0.333-0.191v-0.661l-0.042-2.678h-1.083v3.478c0.056 0.394 0.153 0.626 0.292 0.696 0.25 0.139 0.563 0.145 0.938 0.017s0.632-0.296 0.771-0.504v0.556h0.875v-4.243zM21.542 21.287v-2.226c0-0.441-0.167-0.742-0.5-0.904s-0.75-0.081-1.25 0.243v-1.635h-1.125v5.67h0.917l0.083-0.383c0.583 0.417 1.049 0.533 1.396 0.348s0.507-0.557 0.479-1.113zM25.042 20.974h-0.833v0.487c0 0.255-0.153 0.383-0.458 0.383h-0.167c-0.306 0-0.458-0.128-0.458-0.383v-1.009h1.917v-0.591c0-0.603-0.014-0.985-0.042-1.148-0.083-0.371-0.382-0.603-0.896-0.696s-0.938-0.035-1.271 0.174c-0.222 0.162-0.375 0.336-0.458 0.522-0.083 0.232-0.125 0.545-0.125 0.939v1.322c0 0.858 0.389 1.357 1.167 1.496 0.667 0.116 1.153-0.070 1.458-0.556 0.194-0.255 0.25-0.568 0.167-0.939zM20.75 13.809c0.056 0.116 0.153 0.209 0.292 0.278 0.111 0.070 0.264 0.104 0.458 0.104 0.167 0 0.306-0.035 0.417-0.104s0.208-0.174 0.292-0.313v0.348h1.25v-4.417h-1v3.443c0 0.232-0.139 0.348-0.417 0.348-0.25 0-0.375-0.116-0.375-0.348v-3.443h-1.042v2.991c0 0.417 0.014 0.672 0.042 0.765 0 0.093 0.028 0.209 0.083 0.348zM17 11.339c0-0.417 0.042-0.754 0.125-1.009 0.083-0.209 0.236-0.394 0.458-0.557 0.222-0.139 0.5-0.209 0.833-0.209 0.306 0 0.556 0.046 0.75 0.139 0.194 0.070 0.347 0.185 0.458 0.348 0.111 0.116 0.194 0.267 0.25 0.452 0.028 0.116 0.042 0.359 0.042 0.73v1.113c0 0.464-0.014 0.765-0.042 0.904-0.028 0.162-0.111 0.336-0.25 0.522-0.083 0.116-0.236 0.243-0.458 0.383-0.222 0.070-0.444 0.104-0.667 0.104-0.278 0-0.528-0.035-0.75-0.104-0.194-0.070-0.347-0.174-0.458-0.313-0.111-0.185-0.181-0.348-0.208-0.487-0.056-0.232-0.083-0.522-0.083-0.87v-1.148zM17.958 13.078c0 0.116 0.049 0.22 0.146 0.313s0.215 0.139 0.354 0.139c0.333 0 0.5-0.151 0.5-0.452v-2.33c0-0.301-0.167-0.452-0.5-0.452s-0.5 0.151-0.5 0.452v2.33zM14.542 14.261h1.167v-3.374l1.375-2.887h-1.25l-0.75 2.157-0.75-2.157h-1.25l1.458 2.887v3.374z"></path>
</symbol>
<symbol id="icon-circle" viewBox="0 0 30 32">
<path d="M29.867 16c0 8.247-6.686 14.933-14.933 14.933s-14.933-6.686-14.933-14.933c0-8.247 6.686-14.933 14.933-14.933s14.933 6.686 14.933 14.933z"></path>
</symbol>
<symbol id="icon-clock_footer" viewBox="0 0 33 32">
<path stroke-linejoin="round" stroke-linecap="round" stroke-miterlimit="4" stroke-width="0.8" d="M16.785 30.333c7.916 0 14.333-6.417 14.333-14.333s-6.417-14.333-14.333-14.333c-7.916 0-14.333 6.417-14.333 14.333s6.417 14.333 14.333 14.333z"></path>
<path stroke-linejoin="round" stroke-linecap="round" stroke-miterlimit="4" stroke-width="0.8" d="M16.785 30.009v-2.241M9.788 28.133l1.12-1.941M4.665 23.011l1.941-1.12M2.79 16.014h2.241M4.665 9.017l1.941 1.12M9.788 3.894l1.12 1.941M16.785 2.019v2.241M23.782 3.894l-1.12 1.941M28.904 9.017l-1.941 1.12M30.78 16.014h-2.241M28.904 23.011l-1.941-1.12M23.782 28.133l-1.12-1.941"></path>
<path stroke-linejoin="round" stroke-linecap="round" stroke-miterlimit="4" stroke-width="0.8" d="M16.785 17.665c0.92 0 1.665-0.746 1.665-1.665s-0.746-1.665-1.665-1.665-1.665 0.746-1.665 1.665c0 0.92 0.746 1.665 1.665 1.665z"></path>
<path stroke-linejoin="round" stroke-linecap="round" stroke-miterlimit="4" stroke-width="0.8" d="M16.785 17.663v4.709M26.058 16h-7.52M15.42 14.635l-5.829-5.829"></path>
</symbol>
<symbol id="icon-location_footer" viewBox="0 0 32 32">
<path d="M25 13c0-2.387-0.948-4.676-2.636-6.364s-3.977-2.636-6.364-2.636-4.676 0.948-6.364 2.636c-1.688 1.688-2.636 3.977-2.636 6.364 0 3.692 2.954 8.504 9 14.268 6.046-5.764 9-10.576 9-14.268zM16 30c-7.334-6.666-11-12.334-11-17 0-2.917 1.159-5.715 3.222-7.778s4.861-3.222 7.778-3.222 5.715 1.159 7.778 3.222c2.063 2.063 3.222 4.861 3.222 7.778 0 4.666-3.666 10.334-11 17z"></path>
<path d="M16 16c0.796 0 1.559-0.316 2.121-0.879s0.879-1.326 0.879-2.121-0.316-1.559-0.879-2.121c-0.563-0.563-1.326-0.879-2.121-0.879s-1.559 0.316-2.121 0.879c-0.563 0.563-0.879 1.326-0.879 2.121s0.316 1.559 0.879 2.121c0.563 0.563 1.326 0.879 2.121 0.879zM16 18c-1.326 0-2.598-0.527-3.536-1.464s-1.464-2.209-1.464-3.536c0-1.326 0.527-2.598 1.464-3.536s2.209-1.464 3.536-1.464c1.326 0 2.598 0.527 3.536 1.464s1.464 2.209 1.464 3.536c0 1.326-0.527 2.598-1.464 3.536s-2.209 1.464-3.536 1.464z"></path>
</symbol>
<symbol id="icon-phone_footer" viewBox="0 0 32 32">
<path d="M19.311 0v2.039c6.182 0 11.213 5.032 11.213 11.217h2.039c0-7.309-5.945-13.256-13.252-13.256zM8.76 3.065c-0.547-0.002-1.078 0.183-1.505 0.525l-0.050 0.041-3.206 3.308 0.068-0.064c-1.060 0.914-1.354 2.358-0.898 3.571 0.859 2.478 3.048 7.27 7.369 11.585 4.328 4.336 9.168 6.432 11.563 7.368l0.024 0.008 0.023 0.008c0.6 0.198 1.24 0.238 1.859 0.115s1.196-0.404 1.675-0.816l0.031-0.025 3.185-3.187c0.846-0.846 0.846-2.329 0-3.174l-4.176-4.183c-0.848-0.848-2.33-0.848-3.178 0l-2.022 2.023c-0.724-0.346-2.506-1.242-4.2-2.857-1.67-1.595-2.523-3.436-2.832-4.149l2.039-2.039c0.894-0.894 0.945-2.431-0.086-3.253l0.093 0.087-4.222-4.324-0.048-0.041c-0.427-0.342-0.959-0.527-1.506-0.525zM19.311 4.079v2.039c3.934 0 7.136 3.202 7.136 7.138h2.039c0-5.060-4.115-9.178-9.174-9.178zM8.762 5.099c0.073 0 0.145 0.028 0.215 0.082l4.146 4.246 0.050 0.041c-0.012-0.010 0.039 0.088-0.086 0.212l-3.014 3.016 0.232 0.616c0 0 1.151 3.129 3.61 5.475 2.418 2.307 5.4 3.567 5.4 3.567l0.635 0.271 3.036-3.038c0.172-0.171 0.123-0.171 0.296 0l4.176 4.183c0.173 0.173 0.173 0.116 0 0.291l-3.106 3.107c-0.473 0.402-0.961 0.507-1.549 0.312-2.305-0.901-6.816-2.876-10.822-6.889-4.035-4.031-6.126-8.611-6.893-10.83l-0.004-0.012-0.006-0.014c-0.154-0.408-0.041-1 0.321-1.312l0.034-0.031 3.113-3.211c0.061-0.050 0.138-0.079 0.217-0.082zM19.311 8.158v2.039c1.686 0 3.058 1.373 3.058 3.059h2.039c0-2.811-2.286-5.099-5.097-5.099z"></path>
</symbol>
<symbol id="icon-checkmark" viewBox="0 0 32 32">
<path d="M27 4l-15 15-7-7-5 5 12 12 20-20z"></path>
</symbol>
<symbol id="icon-box" viewBox="0 0 32 32">
<path d="M0.714 4.977l14.82-4.935c0.177-0.060 0.362-0.055 0.526 0.003v-0.003l15.016 5.143c0.37 0.125 0.594 0.484 0.56 0.857 0.003 0.018 0.003 0.039 0.003 0.060v17.464h-0.003c0 0.302-0.167 0.594-0.456 0.74l-14.909 7.576c-0.125 0.076-0.273 0.12-0.43 0.12-0.167 0-0.32-0.049-0.451-0.133l-14.943-7.794c-0.281-0.148-0.445-0.435-0.445-0.734h-0.003v-17.539c0-0.419 0.31-0.766 0.714-0.823v0zM3.992 17.771c0-0.318 0.258-0.578 0.578-0.578 0.318 0 0.578 0.258 0.578 0.578v2.352c0 0.018 0 0.039-0.003 0.057 0 0.081 0.010 0.146 0.029 0.195 0.008 0.016 0.016 0.031 0.031 0.042l1.44 0.669c0.289 0.133 0.414 0.477 0.281 0.763-0.133 0.289-0.474 0.414-0.763 0.281l-1.474-0.685c-0.026-0.010-0.052-0.023-0.078-0.042-0.237-0.148-0.401-0.349-0.503-0.596-0.081-0.198-0.117-0.417-0.115-0.651v-2.385h-0.003zM15.010 29.802v-16.703l-13.349-6.052v15.792l13.349 6.964zM29.974 7.245l-13.302 5.862v16.711l13.302-6.76v-15.813zM15.786 1.701l-12.625 4.206 12.685 5.753 12.685-5.591-12.745-4.367z"></path>
</symbol>
<symbol id="icon-delivery-truck" viewBox="0 0 53 32">
<path d="M40.644 8.062l3.271 7.081 8.209 3.142 0.77 8.273h-2.501c-1.158-9.022-12.543-7.929-12.892 0h-4.597v0.865c0 0.422-0.34 0.762-0.762 0.762h-5.058c-0.422 0-0.762-0.34-0.762-0.762s0.34-0.762 0.762-0.762h4.296v-23.852c0-0.353-0.146-0.676-0.379-0.908s-0.555-0.379-0.908-0.379h-21.454c-0.353 0-0.676 0.146-0.908 0.379s-0.379 0.555-0.379 0.908c0 0.422-0.34 0.762-0.762 0.762s-0.762-0.34-0.762-0.762c0-0.775 0.319-1.476 0.826-1.984 0.508-0.512 1.21-0.826 1.984-0.826h21.454c0.775 0 1.476 0.314 1.984 0.826 0.512 0.508 0.826 1.21 0.826 1.984v5.209l7.74 0.043zM1.141 16.159h10.284c0.628 0 1.141-0.344 1.141-0.766s-0.508-0.766-1.141-0.766h-10.284c-0.628 0-1.141 0.344-1.141 0.766s0.508 0.766 1.141 0.766zM3.495 12.036h7.933c0.473 0 0.857-0.34 0.857-0.762s-0.383-0.762-0.857-0.762h-7.933c-0.474 0-0.857 0.34-0.857 0.762s0.383 0.762 0.857 0.762zM4.584 7.912h6.84c0.473 0 0.857-0.34 0.857-0.762s-0.383-0.762-0.857-0.762h-6.84c-0.473 0-0.857 0.34-0.857 0.762s0.383 0.762 0.857 0.762zM11.39 26.658v0.004h-2.755c-0.34 0-0.654-0.155-0.887-0.396-0.245-0.254-0.396-0.603-0.396-0.969v-5.596c0-0.422-0.34-0.762-0.762-0.762s-0.762 0.34-0.762 0.762v5.596c0 0.766 0.319 1.489 0.826 2.019 0.512 0.529 1.214 0.865 1.984 0.865h2.751c0.422 0 0.762-0.34 0.762-0.762s-0.34-0.762-0.762-0.762zM19.138 21.682v0c2.85 0 5.157 2.312 5.161 5.161 0 2.85-2.312 5.161-5.161 5.161s-5.161-2.312-5.161-5.161c0-2.85 2.312-5.161 5.161-5.161zM19.138 24.859c-1.093 0-1.984 0.887-1.984 1.984 0 1.093 0.887 1.984 1.984 1.984 1.093 0 1.984-0.887 1.984-1.984-0.004-1.098-0.891-1.984-1.984-1.984v0zM43.932 21.682v0c2.85 0 5.161 2.312 5.161 5.161s-2.312 5.161-5.161 5.161c-2.85 0-5.161-2.312-5.161-5.161s2.312-5.161 5.161-5.161zM43.932 24.859c-1.093 0-1.984 0.887-1.984 1.984 0 1.093 0.887 1.984 1.984 1.984s1.984-0.887 1.984-1.984c0-1.098-0.887-1.984-1.984-1.984v0zM38.651 10.249l-3.844-0.043v4.946h6.444l-2.6-4.903z"></path>
</symbol>
<symbol id="icon-orders" viewBox="0 0 30 32">
<path d="M6.581 22.635c-0.471 0-0.849-0.38-0.849-0.849s0.383-0.849 0.849-0.849h5.596c0.471 0 0.849 0.38 0.849 0.849s-0.38 0.849-0.849 0.849h-5.596zM15.911 20.174c-0.25 0-0.464-0.214-0.464-0.474 0-0.25 0.214-0.464 0.464-0.464h1.211c0.010 0 0.036 0 0.047 0 0.427 0.010 0.807 0.094 1.128 0.297 0.357 0.227 0.617 0.57 0.76 1.081 0 0.010 0 0.023 0.013 0.036l0.12 0.474h10.388c0.26 0 0.464 0.214 0.464 0.464 0 0.047-0.013 0.094-0.023 0.143l-1.211 4.88c-0.047 0.214-0.237 0.357-0.451 0.357v0h-7.599c0.167 0.617 0.333 0.951 0.557 1.104 0.273 0.177 0.747 0.19 1.544 0.177h5.378c0.26 0 0.464 0.214 0.464 0.464 0 0.26-0.214 0.464-0.464 0.464h-5.37c-0.987 0.010-1.591-0.013-2.078-0.333-0.5-0.333-0.76-0.901-1.021-1.935v0l-1.591-6.023c0-0.013 0-0.013-0.010-0.023-0.070-0.26-0.19-0.44-0.357-0.534-0.167-0.107-0.391-0.154-0.654-0.154-0.013 0-0.023 0-0.036 0h-1.208zM26.846 29.721c0.63 0 1.141 0.51 1.141 1.141s-0.51 1.141-1.141 1.141-1.141-0.51-1.141-1.141 0.51-1.141 1.141-1.141v0 0zM21.846 29.721c0.63 0 1.141 0.51 1.141 1.141s-0.51 1.141-1.141 1.141c-0.63 0-1.141-0.51-1.141-1.141s0.513-1.141 1.141-1.141v0 0zM6.581 8.745c-0.471 0-0.849-0.383-0.849-0.849 0-0.469 0.383-0.849 0.849-0.849h13.156c0.471 0 0.849 0.38 0.849 0.849s-0.38 0.849-0.849 0.849h-13.156zM1.971 0h22.299c0.544 0 1.039 0.221 1.393 0.576s0.576 0.849 0.576 1.393v15.62h-1.693v-15.612c0-0.076-0.031-0.146-0.081-0.198-0.052-0.049-0.122-0.081-0.198-0.081v0h-22.297c-0.076 0-0.146 0.031-0.198 0.081s-0.078 0.122-0.078 0.198v25.695c0 0.076 0.031 0.146 0.081 0.198s0.12 0.081 0.198 0.081h14.336c0.159 0.622 0.339 1.167 0.581 1.685h-14.919c-0.544 0-1.039-0.221-1.393-0.576-0.357-0.352-0.578-0.846-0.578-1.391v-25.698c0-0.544 0.221-1.042 0.576-1.396s0.852-0.576 1.396-0.576v0 0zM6.581 15.69c-0.471 0-0.849-0.38-0.849-0.849s0.383-0.849 0.849-0.849h13.156c0.471 0 0.849 0.38 0.849 0.849s-0.38 0.849-0.849 0.849h-13.156z"></path>
</symbol>
<symbol id="icon-phone" viewBox="0 0 32 32">
<path d="M13.623 17.922c0.755 0.804 1.568 1.533 2.44 2.189l0.048 0.035c0.886 0.666 1.888 1.298 2.94 1.847l0.121 0.057 0.044-0.031c0.078-0.063 0.167-0.144 0.262-0.235s0.157-0.17 0.241-0.262l0.296-0.385c0.028-0.042 0.057-0.079 0.089-0.113l-0 0c1.128-1.486 2.533-3.273 4.793-2.226 0.053 0.022 0.098 0.045 0.141 0.071l-0.005-0.003c1.831 1.083 3.71 2.132 5.557 3.195 0.050 0.026 0.093 0.054 0.133 0.085l-0.002-0.002c0.455 0.312 0.817 0.729 1.057 1.216l0.008 0.018c0.225 0.474 0.356 1.031 0.356 1.617 0 0.007-0 0.014-0 0.021v-0.001c-0.006 0.571-0.096 1.12-0.257 1.636l0.011-0.040c-0.184 0.606-0.415 1.131-0.7 1.622l0.020-0.037c-0.366 0.641-0.819 1.186-1.35 1.641l-0.008 0.007c-0.492 0.422-1.055 0.782-1.664 1.057l-0.044 0.018h-0.013c-0.489 0.228-1.069 0.436-1.67 0.591l-0.072 0.016c-0.466 0.127-1.062 0.249-1.668 0.339l-0.092 0.011c-0.518 0.082-1.115 0.128-1.723 0.128-0.358 0-0.712-0.016-1.062-0.048l0.045 0.003c-0.983-0.089-1.887-0.274-2.752-0.548l0.091 0.025c-1.014-0.324-1.87-0.678-2.69-1.094l0.103 0.047c-1.069-0.529-1.939-1.022-2.781-1.556l0.123 0.073-0.22-0.136c-0.803-0.5-1.669-1.047-2.546-1.693v0c-1.845-1.408-3.473-2.924-4.939-4.586l-0.032-0.037c-1.395-1.57-2.651-3.323-3.715-5.199l-0.079-0.152c-0.893-1.553-1.613-3.35-2.065-5.252l-0.028-0.138c-0.228-0.933-0.359-2.005-0.359-3.107 0-0.71 0.054-1.408 0.159-2.089l-0.010 0.076c0.169-1.082 0.5-2.056 0.971-2.944l-0.024 0.050c0.458-0.864 1.058-1.592 1.777-2.18l0.013-0.010c0.7-0.565 1.532-0.997 2.441-1.242l0.047-0.011c0.631-0.168 1.354-0.264 2.101-0.264 0.296 0 0.588 0.015 0.876 0.045l-0.036-0.003c0.276 0.018 0.529 0.106 0.744 0.247l-0.006-0.004c0.217 0.142 0.394 0.329 0.519 0.549l0.004 0.008 3.522 5.963c0.298 0.382 0.507 0.848 0.587 1.357l0.002 0.017c0.014 0.104 0.022 0.223 0.022 0.345 0 0.405-0.087 0.789-0.243 1.135l0.007-0.017c-0.178 0.398-0.406 0.739-0.682 1.036l0.002-0.002c-0.277 0.298-0.578 0.566-0.903 0.804l-0.018 0.012c-0.191 0.165-0.432 0.34-0.683 0.523l-0.024 0.018c-0.315 0.218-0.591 0.44-0.849 0.682l0.004-0.004c-0.102 0.083-0.182 0.188-0.233 0.309l-0.002 0.005c0 0.029 0.024 0 0.050 0.044l0.089 0.139c0.296 0.463 0.866 1.347 1.517 2.287 0.62 0.915 1.237 1.709 1.901 2.462l-0.022-0.026zM15.049 21.558c-1.004-0.754-1.891-1.548-2.706-2.41l-0.009-0.010c-0.704-0.789-1.377-1.651-1.991-2.556l-0.055-0.087c-0.649-0.937-1.245-1.86-1.554-2.355l-0.076-0.113c-0.219-0.268-0.352-0.614-0.352-0.991 0-0.060 0.003-0.12 0.010-0.178l-0.001 0.007c0.074-0.572 0.348-1.070 0.749-1.429l0.002-0.002c0.319-0.303 0.665-0.585 1.031-0.839l0.029-0.019c0.209-0.152 0.408-0.298 0.589-0.453l0.055-0.042c0.262-0.184 0.49-0.385 0.696-0.607l0.003-0.003c0.146-0.156 0.269-0.337 0.361-0.534l0.005-0.013c0.058-0.123 0.092-0.266 0.092-0.418 0-0.037-0.002-0.074-0.006-0.11l0 0.004c-0.042-0.213-0.134-0.4-0.263-0.554l0.002 0.002c-0.031-0.035-0.059-0.075-0.082-0.117l-0.002-0.003-3.485-5.936c-0.181-0.017-0.39-0.027-0.603-0.027-0.586 0-1.155 0.076-1.696 0.218l0.046-0.010c-0.704 0.187-1.317 0.506-1.841 0.931l0.009-0.007c-0.546 0.448-0.994 0.992-1.323 1.609l-0.014 0.028c-0.358 0.677-0.624 1.465-0.753 2.297l-0.005 0.042c-0.082 0.524-0.129 1.129-0.129 1.745 0 0.959 0.114 1.891 0.329 2.784l-0.016-0.081c0.445 1.862 1.106 3.502 1.974 5.009l-0.048-0.090c1.073 1.903 2.255 3.547 3.593 5.049l-0.025-0.028c1.42 1.608 2.961 3.044 4.632 4.32l0.078 0.057c0.785 0.594 1.638 1.12 2.423 1.606l0.222 0.141c0.673 0.432 1.487 0.895 2.325 1.318l0.163 0.074c0.648 0.333 1.42 0.651 2.219 0.908l0.112 0.031c0.666 0.218 1.446 0.381 2.25 0.457l0.044 0.003c0.255 0.023 0.553 0.037 0.853 0.037 0.521 0 1.032-0.040 1.531-0.117l-0.056 0.007c0.62-0.088 1.151-0.196 1.672-0.331l-0.102 0.023c0.559-0.141 1.041-0.313 1.5-0.524l-0.054 0.022h0.024c0.492-0.221 0.916-0.491 1.295-0.812l-0.008 0.006c0.384-0.33 0.706-0.718 0.957-1.153l0.011-0.021c0.203-0.347 0.38-0.748 0.512-1.17l0.011-0.042c0.103-0.327 0.166-0.703 0.173-1.093l0-0.004c0-0.013 0-0.028 0-0.044 0-0.301-0.067-0.586-0.186-0.842l0.005 0.012c-0.109-0.226-0.27-0.411-0.469-0.546l-0.005-0.003c-1.415-1.012-3.901-2.247-5.494-3.168l-0.076-0.039c-0.981-0.437-1.892 0.719-2.632 1.695l-0.044 0.063c-0.128 0.17-0.262 0.335-0.366 0.476s-0.262 0.314-0.366 0.419c-0.138 0.137-0.284 0.267-0.437 0.387l-0.011 0.008c-0.167 0.127-0.357 0.236-0.562 0.319l-0.017 0.006c-0.159 0.064-0.343 0.102-0.536 0.102-0.028 0-0.056-0.001-0.083-0.002l0.004 0c-0.192-0.013-0.37-0.059-0.533-0.132l0.010 0.004-0.084-0.037c-1.32-0.672-2.448-1.378-3.509-2.169l0.063 0.045z"></path>
</symbol>
<symbol id="icon-arrow-left" viewBox="0 0 32 32">
<path d="M32 16c0 8.836-7.164 16-16 16s-16-7.164-16-16c0-8.837 7.163-16 16-16s16 7.163 16 16zM18.776 10.465c0.247-0.254 0.244-0.664-0.008-0.914s-0.657-0.247-0.905 0.008l-5.889 6.071c-0.247 0.254-0.244 0.661 0.005 0.912l5.889 5.906c0.25 0.251 0.656 0.25 0.905-0.003s0.248-0.663-0.003-0.914l-5.439-5.454 5.444-5.611z"></path>
</symbol>
<symbol id="icon-arrow-right" viewBox="0 0 32 32">
<path d="M0 16c0-8.836 7.164-16 16-16s16 7.164 16 16c0 8.837-7.163 16-16 16s-16-7.163-16-16zM13.224 21.535c-0.248 0.254-0.244 0.664 0.008 0.914s0.658 0.247 0.905-0.008l5.889-6.071c0.247-0.254 0.244-0.661-0.005-0.912l-5.889-5.906c-0.25-0.251-0.656-0.25-0.905 0.003s-0.248 0.662 0.002 0.914l5.439 5.454-5.444 5.611z"></path>
</symbol>
<symbol id="icon-hamburger" viewBox="0 0 44 32">
<path d="M0 0.444h44.444v4.444h-44.444v-4.444zM0 13.778h44.444v4.444h-44.444v-4.444zM0 27.111h44.444v4.444h-44.444v-4.444z"></path>
</symbol>
</defs>
</svg>
