<svg width="41" height="40" viewBox="0 0 41 40" fill="none" xmlns="http://www.w3.org/2000/svg">
<path d="M20.9813 37.9166C30.8764 37.9166 38.898 29.895 38.898 19.9999C38.898 10.1048 30.8764 2.08325 20.9813 2.08325C11.0862 2.08325 3.06464 10.1048 3.06464 19.9999C3.06464 29.895 11.0862 37.9166 20.9813 37.9166Z" stroke="white" stroke-linecap="round" stroke-linejoin="round"/>
<path d="M20.9813 37.5108V34.7092M12.2346 35.1667L13.6346 32.7408M5.83131 28.7642L8.25798 27.3642M3.48798 20.0175H6.28964M5.83131 11.2708L8.25798 12.6708M12.2346 4.8675L13.6346 7.29417M20.9813 2.52417V5.32584M29.728 4.8675L28.328 7.29417M36.1305 11.2708L33.7046 12.6708M38.4746 20.0175H35.673M36.1305 28.7642L33.7046 27.3642M29.728 35.1667L28.328 32.7408" stroke="white" stroke-linecap="round" stroke-linejoin="round"/>
<path d="M20.9813 22.0818C22.131 22.0818 23.063 21.1498 23.063 20.0001C23.063 18.8505 22.131 17.9185 20.9813 17.9185C19.8316 17.9185 18.8996 18.8505 18.8996 20.0001C18.8996 21.1498 19.8316 22.0818 20.9813 22.0818Z" stroke="white" stroke-linecap="round" stroke-linejoin="round"/>
<path d="M20.9813 22.0792V27.9651M32.573 20.0001H23.173M19.2755 18.2942L11.9888 11.0076" stroke="white" stroke-linecap="round" stroke-linejoin="round"/>
</svg>
