<svg width="40" height="40" viewBox="0 0 40 40" fill="none" xmlns="http://www.w3.org/2000/svg">
<g clip-path="url(#clip0_6_150)">
<path d="M24.1384 0V2.54932C31.8665 2.54932 38.1548 8.83978 38.1548 16.5706H40.7032C40.7032 7.43383 33.272 0 24.1384 0ZM10.9503 3.83164C10.2668 3.82934 9.60316 4.06098 9.0695 4.48809L9.00707 4.53907L4.99965 8.67408L5.08502 8.59377C3.75984 9.73587 3.39286 11.5408 3.96244 13.0576C5.0366 16.1551 7.77235 22.1447 13.1738 27.5391C18.5841 32.9589 24.6341 35.5797 27.6272 36.7485L27.6578 36.7587L27.6871 36.7689C28.4365 37.0167 29.2373 37.0662 30.0114 36.9125C30.7856 36.7589 31.5068 36.4073 32.1048 35.8919L32.143 35.8601L36.1237 31.8768C37.1813 30.8188 37.1813 28.9654 36.1237 27.9087L30.9032 22.6801C29.8431 21.6195 27.9904 21.6195 26.9302 22.6801L24.4022 25.209C23.4975 24.7769 21.2701 23.6565 19.1524 21.6374C17.0652 19.6438 15.9987 17.3418 15.6126 16.4508L18.1611 13.9015C19.2785 12.7836 19.3423 10.8627 18.054 9.8353L18.17 9.94364L12.8922 4.53907L12.8323 4.48809C12.2983 4.06061 11.6341 3.82894 10.9503 3.83164ZM24.1384 5.09865V7.64797C29.0556 7.64797 33.0579 11.6504 33.0579 16.5706H35.6064C35.6064 10.2457 30.4624 5.09865 24.1384 5.09865ZM10.9528 6.37331C11.0445 6.37331 11.1337 6.40773 11.2217 6.47529L16.4039 11.783L16.4663 11.834C16.4511 11.8212 16.5148 11.9436 16.3593 12.0991L12.5914 15.8695L12.882 16.6394C12.882 16.6394 14.3206 20.5501 17.394 23.4831C20.4164 26.3664 24.1435 27.9419 24.1435 27.9419L24.9373 28.2809L28.732 24.4837C28.9473 24.2696 28.8861 24.2696 29.1015 24.4837L34.322 29.7124C34.5386 29.9291 34.5386 29.8577 34.322 30.0757L30.4394 33.9596C29.8482 34.4618 29.2378 34.5931 28.5026 34.3496C25.6216 33.2228 19.9832 30.7551 14.9755 25.738C9.93215 20.6992 7.31745 14.9747 6.35924 12.2011L6.35415 12.1858L6.3465 12.1679C6.15409 11.6581 6.29553 10.9175 6.74788 10.5274L6.78993 10.4892L10.6814 6.47529C10.7581 6.41226 10.8536 6.37641 10.9528 6.37331ZM24.1384 10.1973V12.7466C26.246 12.7466 27.9611 14.4623 27.9611 16.5706H30.5095C30.5095 13.0564 27.6514 10.1973 24.1384 10.1973Z" fill="white"/>
</g>
<defs>
<clipPath id="clip0_6_150">
<rect width="40" height="40" fill="white"/>
</clipPath>
</defs>
</svg>
