<svg aria-hidden="true" style="position: absolute; width: 0; height: 0; overflow: hidden;" version="1.1" xmlns="http://www.w3.org/2000/svg" xmlns:xlink="http://www.w3.org/1999/xlink">
<defs>
<symbol id="icon-telegram" viewBox="0 0 37 32">
<path d="M26.444 7.642c-0.089-0.086-0.196-0.143-0.312-0.165s-0.234-0.009-0.343 0.039l-14.476 6.345c-0.205 0.089-0.379 0.251-0.495 0.46s-0.168 0.456-0.149 0.701c0.020 0.246 0.11 0.477 0.257 0.66s0.344 0.308 0.56 0.355l3.751 0.825v4.684c-0.001 0.255 0.067 0.505 0.194 0.716s0.308 0.375 0.52 0.47c0.211 0.097 0.443 0.12 0.666 0.067s0.427-0.18 0.584-0.365l1.809-2.101 2.869 2.813c0.207 0.206 0.474 0.319 0.751 0.32 0.121-0 0.242-0.021 0.357-0.063 0.189-0.067 0.358-0.188 0.492-0.351s0.227-0.363 0.27-0.579l2.899-14.127c0.026-0.127 0.020-0.26-0.016-0.384s-0.102-0.235-0.191-0.32zM22.077 10.522l-6.399 5.133-3.543-0.778 9.942-4.354zM16.381 21.547v-3.798l1.771 1.739-1.771 2.059zM22.634 22.187l-5.906-5.8 8.5-6.823-2.594 12.623z"></path>
</symbol>
<symbol id="icon-viber" viewBox="0 0 38 32">
<path d="M25.040 9.558c-0.418-0.366-2.112-1.531-5.888-1.547 0 0-4.452-0.253-6.62 1.634-1.206 1.144-1.631 2.822-1.677 4.899s-0.102 5.971 3.855 7.027h0.003l-0.003 1.612c0 0-0.026 0.653 0.428 0.784 0.547 0.162 0.87-0.334 1.394-0.869 0.287-0.294 0.682-0.725 0.982-1.053 2.709 0.216 4.788-0.278 5.025-0.35 0.547-0.169 3.641-0.544 4.142-4.437 0.521-4.018-0.25-6.555-1.641-7.702zM25.498 16.966c-0.425 3.25-2.933 3.456-3.394 3.596-0.198 0.059-2.026 0.491-4.323 0.35 0 0-1.713 1.959-2.247 2.468-0.175 0.166-0.366 0.15-0.362-0.178 0-0.216 0.013-2.678 0.013-2.678-0.003 0-0.003 0 0 0-3.354-0.881-3.157-4.196-3.12-5.931s0.382-3.156 1.404-4.112c1.835-1.578 5.615-1.344 5.615-1.344 3.193 0.012 4.722 0.925 5.078 1.231 1.176 0.956 1.776 3.243 1.338 6.596zM20.918 14.442c0.013 0.269-0.412 0.287-0.425 0.019-0.036-0.687-0.376-1.022-1.074-1.059-0.283-0.016-0.257-0.419 0.023-0.403 0.919 0.047 1.43 0.547 1.476 1.444zM21.587 14.795c0.033-1.325-0.84-2.362-2.498-2.478-0.28-0.019-0.25-0.422 0.030-0.403 1.911 0.131 2.929 1.378 2.893 2.89-0.003 0.269-0.432 0.256-0.425-0.009zM23.136 15.214c0.003 0.269-0.425 0.272-0.425 0.003-0.020-2.546-1.809-3.934-3.98-3.95-0.28-0.003-0.28-0.403 0-0.403 2.428 0.016 4.383 1.606 4.406 4.349zM22.763 18.279v0.006c-0.356 0.594-1.021 1.25-1.707 1.041l-0.007-0.009c-0.695-0.184-2.333-0.984-3.368-1.765-0.534-0.4-1.021-0.872-1.397-1.325-0.339-0.403-0.682-0.881-1.015-1.456-0.702-1.203-0.857-1.74-0.857-1.74-0.221-0.65 0.468-1.281 1.097-1.619h0.007c0.303-0.15 0.593-0.1 0.788 0.122 0 0 0.409 0.462 0.583 0.691 0.165 0.212 0.386 0.553 0.501 0.744 0.201 0.341 0.076 0.687-0.122 0.831l-0.395 0.3c-0.201 0.153-0.175 0.437-0.175 0.437s0.587 2.103 2.778 2.634c0 0 0.3 0.025 0.461-0.166l0.316-0.375c0.152-0.188 0.517-0.306 0.876-0.116 0.484 0.259 1.101 0.662 1.509 1.028 0.231 0.178 0.283 0.45 0.125 0.737z"></path>
</symbol>
<symbol id="icon-youtube" viewBox="0 0 37 32">
<path d="M24.208 19.722h-1.042v-0.522c0-0.278 0.167-0.417 0.5-0.417h0.042c0.333 0 0.5 0.139 0.5 0.417v0.522zM20.25 18.609c-0.333 0-0.5 0.116-0.5 0.348v2.47c0 0.232 0.167 0.348 0.5 0.348s0.5-0.116 0.5-0.348v-2.47c0-0.232-0.167-0.348-0.5-0.348zM26.667 17.217v4.73c0 0.58-0.257 1.067-0.771 1.461s-1.132 0.591-1.854 0.591h-10.75c-0.722 0-1.34-0.197-1.854-0.591s-0.771-0.881-0.771-1.461v-4.73c0-0.557 0.257-1.038 0.771-1.443s1.132-0.609 1.854-0.609h10.75c0.722 0 1.34 0.203 1.854 0.609s0.771 0.887 0.771 1.443zM14 22.47v-4.974h1.333v-0.73l-3.542-0.035v0.73h1.083v5.009h1.125zM18 18.226h-1.125v3.304c-0.056 0.116-0.153 0.191-0.292 0.226s-0.25-0.029-0.333-0.191v-0.661l-0.042-2.678h-1.083v3.478c0.056 0.394 0.153 0.626 0.292 0.696 0.25 0.139 0.563 0.145 0.938 0.017s0.632-0.296 0.771-0.504v0.556h0.875v-4.243zM21.542 21.287v-2.226c0-0.441-0.167-0.742-0.5-0.904s-0.75-0.081-1.25 0.243v-1.635h-1.125v5.67h0.917l0.083-0.383c0.583 0.417 1.049 0.533 1.396 0.348s0.507-0.557 0.479-1.113zM25.042 20.974h-0.833v0.487c0 0.255-0.153 0.383-0.458 0.383h-0.167c-0.306 0-0.458-0.128-0.458-0.383v-1.009h1.917v-0.591c0-0.603-0.014-0.985-0.042-1.148-0.083-0.371-0.382-0.603-0.896-0.696s-0.938-0.035-1.271 0.174c-0.222 0.162-0.375 0.336-0.458 0.522-0.083 0.232-0.125 0.545-0.125 0.939v1.322c0 0.858 0.389 1.357 1.167 1.496 0.667 0.116 1.153-0.070 1.458-0.556 0.194-0.255 0.25-0.568 0.167-0.939zM20.75 13.809c0.056 0.116 0.153 0.209 0.292 0.278 0.111 0.070 0.264 0.104 0.458 0.104 0.167 0 0.306-0.035 0.417-0.104s0.208-0.174 0.292-0.313v0.348h1.25v-4.417h-1v3.443c0 0.232-0.139 0.348-0.417 0.348-0.25 0-0.375-0.116-0.375-0.348v-3.443h-1.042v2.991c0 0.417 0.014 0.672 0.042 0.765 0 0.093 0.028 0.209 0.083 0.348zM17 11.339c0-0.417 0.042-0.754 0.125-1.009 0.083-0.209 0.236-0.394 0.458-0.557 0.222-0.139 0.5-0.209 0.833-0.209 0.306 0 0.556 0.046 0.75 0.139 0.194 0.070 0.347 0.185 0.458 0.348 0.111 0.116 0.194 0.267 0.25 0.452 0.028 0.116 0.042 0.359 0.042 0.73v1.113c0 0.464-0.014 0.765-0.042 0.904-0.028 0.162-0.111 0.336-0.25 0.522-0.083 0.116-0.236 0.243-0.458 0.383-0.222 0.070-0.444 0.104-0.667 0.104-0.278 0-0.528-0.035-0.75-0.104-0.194-0.070-0.347-0.174-0.458-0.313-0.111-0.185-0.181-0.348-0.208-0.487-0.056-0.232-0.083-0.522-0.083-0.87v-1.148zM17.958 13.078c0 0.116 0.049 0.22 0.146 0.313s0.215 0.139 0.354 0.139c0.333 0 0.5-0.151 0.5-0.452v-2.33c0-0.301-0.167-0.452-0.5-0.452s-0.5 0.151-0.5 0.452v2.33zM14.542 14.261h1.167v-3.374l1.375-2.887h-1.25l-0.75 2.157-0.75-2.157h-1.25l1.458 2.887v3.374z"></path>
</symbol>
<symbol id="icon-circle" viewBox="0 0 30 32">
<path d="M29.867 16c0 8.247-6.686 14.933-14.933 14.933s-14.933-6.686-14.933-14.933c0-8.247 6.686-14.933 14.933-14.933s14.933 6.686 14.933 14.933z"></path>
</symbol>
<symbol id="icon-clock_footer" viewBox="0 0 33 32">
<path stroke-linejoin="round" stroke-linecap="round" stroke-miterlimit="4" stroke-width="0.8" d="M16.785 30.333c7.916 0 14.333-6.417 14.333-14.333s-6.417-14.333-14.333-14.333c-7.916 0-14.333 6.417-14.333 14.333s6.417 14.333 14.333 14.333z"></path>
<path stroke-linejoin="round" stroke-linecap="round" stroke-miterlimit="4" stroke-width="0.8" d="M16.785 30.009v-2.241M9.788 28.133l1.12-1.941M4.665 23.011l1.941-1.12M2.79 16.014h2.241M4.665 9.017l1.941 1.12M9.788 3.894l1.12 1.941M16.785 2.019v2.241M23.782 3.894l-1.12 1.941M28.904 9.017l-1.941 1.12M30.78 16.014h-2.241M28.904 23.011l-1.941-1.12M23.782 28.133l-1.12-1.941"></path>
<path stroke-linejoin="round" stroke-linecap="round" stroke-miterlimit="4" stroke-width="0.8" d="M16.785 17.665c0.92 0 1.665-0.746 1.665-1.665s-0.746-1.665-1.665-1.665-1.665 0.746-1.665 1.665c0 0.92 0.746 1.665 1.665 1.665z"></path>
<path stroke-linejoin="round" stroke-linecap="round" stroke-miterlimit="4" stroke-width="0.8" d="M16.785 17.663v4.709M26.058 16h-7.52M15.42 14.635l-5.829-5.829"></path>
</symbol>
<symbol id="icon-location_footer" viewBox="0 0 32 32">
<path d="M25 13c0-2.387-0.948-4.676-2.636-6.364s-3.977-2.636-6.364-2.636-4.676 0.948-6.364 2.636c-1.688 1.688-2.636 3.977-2.636 6.364 0 3.692 2.954 8.504 9 14.268 6.046-5.764 9-10.576 9-14.268zM16 30c-7.334-6.666-11-12.334-11-17 0-2.917 1.159-5.715 3.222-7.778s4.861-3.222 7.778-3.222 5.715 1.159 7.778 3.222c2.063 2.063 3.222 4.861 3.222 7.778 0 4.666-3.666 10.334-11 17z"></path>
<path d="M16 16c0.796 0 1.559-0.316 2.121-0.879s0.879-1.326 0.879-2.121-0.316-1.559-0.879-2.121c-0.563-0.563-1.326-0.879-2.121-0.879s-1.559 0.316-2.121 0.879c-0.563 0.563-0.879 1.326-0.879 2.121s0.316 1.559 0.879 2.121c0.563 0.563 1.326 0.879 2.121 0.879zM16 18c-1.326 0-2.598-0.527-3.536-1.464s-1.464-2.209-1.464-3.536c0-1.326 0.527-2.598 1.464-3.536s2.209-1.464 3.536-1.464c1.326 0 2.598 0.527 3.536 1.464s1.464 2.209 1.464 3.536c0 1.326-0.527 2.598-1.464 3.536s-2.209 1.464-3.536 1.464z"></path>
</symbol>
<symbol id="icon-phone_footer" viewBox="0 0 32 32">
<path d="M19.311 0v2.039c6.182 0 11.213 5.032 11.213 11.217h2.039c0-7.309-5.945-13.256-13.252-13.256zM8.76 3.065c-0.547-0.002-1.078 0.183-1.505 0.525l-0.050 0.041-3.206 3.308 0.068-0.064c-1.060 0.914-1.354 2.358-0.898 3.571 0.859 2.478 3.048 7.27 7.369 11.585 4.328 4.336 9.168 6.432 11.563 7.368l0.024 0.008 0.023 0.008c0.6 0.198 1.24 0.238 1.859 0.115s1.196-0.404 1.675-0.816l0.031-0.025 3.185-3.187c0.846-0.846 0.846-2.329 0-3.174l-4.176-4.183c-0.848-0.848-2.33-0.848-3.178 0l-2.022 2.023c-0.724-0.346-2.506-1.242-4.2-2.857-1.67-1.595-2.523-3.436-2.832-4.149l2.039-2.039c0.894-0.894 0.945-2.431-0.086-3.253l0.093 0.087-4.222-4.324-0.048-0.041c-0.427-0.342-0.959-0.527-1.506-0.525zM19.311 4.079v2.039c3.934 0 7.136 3.202 7.136 7.138h2.039c0-5.060-4.115-9.178-9.174-9.178zM8.762 5.099c0.073 0 0.145 0.028 0.215 0.082l4.146 4.246 0.050 0.041c-0.012-0.010 0.039 0.088-0.086 0.212l-3.014 3.016 0.232 0.616c0 0 1.151 3.129 3.61 5.475 2.418 2.307 5.4 3.567 5.4 3.567l0.635 0.271 3.036-3.038c0.172-0.171 0.123-0.171 0.296 0l4.176 4.183c0.173 0.173 0.173 0.116 0 0.291l-3.106 3.107c-0.473 0.402-0.961 0.507-1.549 0.312-2.305-0.901-6.816-2.876-10.822-6.889-4.035-4.031-6.126-8.611-6.893-10.83l-0.004-0.012-0.006-0.014c-0.154-0.408-0.041-1 0.321-1.312l0.034-0.031 3.113-3.211c0.061-0.050 0.138-0.079 0.217-0.082zM19.311 8.158v2.039c1.686 0 3.058 1.373 3.058 3.059h2.039c0-2.811-2.286-5.099-5.097-5.099z"></path>
</symbol>
<symbol id="icon-checkmark" viewBox="0 0 32 32">
<path d="M27 4l-15 15-7-7-5 5 12 12 20-20z"></path>
</symbol>
</defs>
</svg>
