<svg width="70" height="60" viewBox="0 0 70 60" fill="none" xmlns="http://www.w3.org/2000/svg">
<path d="M49.5828 14.3282C49.4168 14.1677 49.2148 14.0609 48.9986 14.0194C48.7825 13.9779 48.5603 14.0033 48.356 14.0927L21.2142 25.9893C20.8296 26.1569 20.5039 26.4598 20.2863 26.8526C20.0687 27.2453 19.9708 27.7067 20.0076 28.1671C20.0443 28.6275 20.2135 29.0621 20.4898 29.4055C20.7662 29.7488 21.1346 29.9823 21.5397 30.0709L28.5722 31.6174V40.4C28.5708 40.8783 28.6978 41.3462 28.9366 41.7428C29.1754 42.1394 29.515 42.4466 29.9115 42.6245C30.3074 42.8055 30.7427 42.849 31.161 42.7492C31.5792 42.6494 31.961 42.411 32.2566 42.065L35.6476 38.1259L41.0275 43.4C41.4156 43.7856 41.9162 43.999 42.4351 44C42.6624 43.9998 42.8884 43.9598 43.1047 43.8815C43.4582 43.7559 43.7762 43.5287 44.0269 43.2226C44.2776 42.9165 44.4524 42.5422 44.5337 42.137L49.9698 15.6497C50.0185 15.4109 50.0081 15.1617 49.94 14.9289C49.8718 14.6961 49.7483 14.4884 49.5828 14.3282ZM41.3945 19.7283L29.3959 29.3524L22.7531 27.8929L41.3945 19.7283ZM30.7151 40.4V33.2779L34.0351 36.5389L30.7151 40.4ZM42.4378 41.6L31.3646 30.7249L47.302 17.9313L42.4378 41.6Z" fill="#FFCB00"/>
</svg>
