<svg width="71" height="60" viewBox="0 0 71 60" fill="none" xmlns="http://www.w3.org/2000/svg">
<path d="M46.9502 17.9213C46.1656 17.2358 42.9899 15.0505 35.9095 15.0212C35.9095 15.0212 27.5626 14.5467 23.4973 18.0853C21.236 20.2296 20.439 23.3756 20.3525 27.2716C20.266 31.1676 20.161 38.4675 27.5812 40.4477H27.5873L27.5812 43.4708C27.5812 43.4708 27.5317 44.6952 28.3843 44.9413C29.4099 45.2459 30.0154 44.3144 30.9978 43.3126C31.5353 42.7619 32.2767 41.9534 32.8389 41.3382C37.9175 41.7425 41.816 40.8168 42.2609 40.6821C43.2865 40.3657 49.0879 39.6627 50.027 32.3628C51.0032 24.8286 49.5575 20.0714 46.9502 17.9213ZM47.809 31.8121C47.012 37.9051 42.3103 38.2917 41.4453 38.5554C41.0746 38.6667 37.6457 39.4752 33.3394 39.2115C33.3394 39.2115 30.1266 42.8849 29.1257 43.8399C28.7983 44.1504 28.44 44.1211 28.4461 43.5059C28.4461 43.1017 28.4708 38.4851 28.4708 38.4851C28.4647 38.4851 28.4647 38.4851 28.4708 38.4851C22.1813 36.8329 22.552 30.6169 22.62 27.3654C22.6879 24.1138 23.3367 21.4482 25.2519 19.6554C28.6933 16.6968 35.7798 17.1362 35.7798 17.1362C41.7666 17.1596 44.6333 18.8704 45.3006 19.4445C47.5063 21.2372 48.6307 25.5258 47.809 31.8121ZM39.2211 27.0783C39.2458 27.5821 38.4488 27.6173 38.4241 27.1135C38.3562 25.8246 37.7198 25.1977 36.41 25.1274C35.8787 25.0981 35.9281 24.3423 36.4532 24.3716C38.177 24.4595 39.1346 25.3969 39.2211 27.0783ZM40.4753 27.7403C40.5371 25.2563 38.8999 23.3112 35.7922 23.0944C35.267 23.0593 35.3226 22.3035 35.8478 22.3387C39.4312 22.5847 41.3403 24.9223 41.2723 27.7579C41.2662 28.2617 40.463 28.2383 40.4753 27.7403ZM43.3791 28.5254C43.3853 29.0292 42.5821 29.0351 42.5821 28.5312C42.5451 23.7565 39.1902 21.1552 35.1187 21.1259C34.5936 21.1201 34.5936 20.3702 35.1187 20.3702C39.6721 20.3995 43.3359 23.3815 43.3791 28.5254ZM42.681 34.2727V34.2844C42.0137 35.3976 40.7657 36.6279 39.4806 36.2354L39.4683 36.2178C38.1646 35.8721 35.094 34.3723 33.154 32.9076C32.1531 32.1577 31.2387 31.2731 30.5344 30.4236C29.898 29.6678 29.2555 28.7715 28.6315 27.6935C27.3155 25.4379 27.0251 24.4302 27.0251 24.4302C26.6112 23.2116 27.9024 22.0282 29.0825 21.3954H29.0949C29.6633 21.1142 30.207 21.2079 30.5715 21.6239C30.5715 21.6239 31.3376 22.491 31.665 22.9187C31.974 23.3171 32.3879 23.9556 32.6041 24.313C32.981 24.9516 32.7462 25.6019 32.3755 25.8714L31.6341 26.4339C31.2573 26.7209 31.3067 27.2541 31.3067 27.2541C31.3067 27.2541 32.4064 31.1969 36.515 32.1929C36.515 32.1929 37.0773 32.2398 37.38 31.8824L37.9731 31.1794C38.2573 30.8278 38.9431 30.6052 39.6165 30.9626C40.5248 31.4488 41.6801 32.2046 42.4462 32.8901C42.8787 33.224 42.9776 33.7337 42.681 34.2727Z" fill="#FFCB00"/>
</svg>
