<svg width="70" height="60" viewBox="0 0 70 60" fill="none" xmlns="http://www.w3.org/2000/svg">
<path d="M45.3906 36.9783H43.4375V36C43.4375 35.4783 43.75 35.2174 44.375 35.2174H44.4531C45.0781 35.2174 45.3906 35.4783 45.3906 36V36.9783ZM37.9688 34.8913C37.3438 34.8913 37.0312 35.1087 37.0312 35.5435V40.1739C37.0312 40.6087 37.3438 40.8261 37.9688 40.8261C38.5938 40.8261 38.9062 40.6087 38.9062 40.1739V35.5435C38.9062 35.1087 38.5938 34.8913 37.9688 34.8913ZM50 32.2826V41.1522C50 42.2391 49.5182 43.1522 48.5547 43.8913C47.5911 44.6304 46.4323 45 45.0781 45H24.9219C23.5677 45 22.4089 44.6304 21.4453 43.8913C20.4818 43.1522 20 42.2391 20 41.1522V32.2826C20 31.2391 20.4818 30.337 21.4453 29.5761C22.4089 28.8152 23.5677 28.4348 24.9219 28.4348H45.0781C46.4323 28.4348 47.5911 28.8152 48.5547 29.5761C49.5182 30.337 50 31.2391 50 32.2826ZM26.25 42.1304V32.8043H28.75V31.4348L22.1094 31.3696V32.7391H24.1406V42.1304H26.25ZM33.75 34.1739H31.6406V40.3696C31.5365 40.587 31.3542 40.7283 31.0938 40.7935C30.8333 40.8587 30.625 40.7391 30.4688 40.4348V39.1957L30.3906 34.1739H28.3594V40.6957C28.4635 41.4348 28.6458 41.8696 28.9062 42C29.375 42.2609 29.9609 42.2717 30.6641 42.0326C31.3672 41.7935 31.849 41.4783 32.1094 41.087V42.1304H33.75V34.1739ZM40.3906 39.913V35.7391C40.3906 34.913 40.0781 34.3478 39.4531 34.0435C38.8281 33.7391 38.0469 33.8913 37.1094 34.5V31.4348H35V42.0652H36.7188L36.875 41.3478C37.9688 42.1304 38.8411 42.3478 39.4922 42C40.1432 41.6522 40.4427 40.9565 40.3906 39.913ZM46.9531 39.3261H45.3906V40.2391C45.3906 40.7174 45.1042 40.9565 44.5312 40.9565H44.2188C43.6458 40.9565 43.3594 40.7174 43.3594 40.2391V38.3478H46.9531V37.2391C46.9531 36.1087 46.9271 35.3913 46.875 35.087C46.7188 34.3913 46.1589 33.9565 45.1953 33.7826C44.2318 33.6087 43.4375 33.7174 42.8125 34.1087C42.3958 34.413 42.1094 34.7391 41.9531 35.087C41.7969 35.5217 41.7188 36.1087 41.7188 36.8478V39.3261C41.7188 40.9348 42.4479 41.8696 43.9062 42.1304C45.1562 42.3478 46.0677 42 46.6406 41.087C47.0052 40.6087 47.1094 40.0217 46.9531 39.3261ZM38.9062 25.8913C39.0104 26.1087 39.1927 26.2826 39.4531 26.413C39.6615 26.5435 39.9479 26.6087 40.3125 26.6087C40.625 26.6087 40.8854 26.5435 41.0938 26.413C41.3021 26.2826 41.4844 26.087 41.6406 25.8261V26.4783H43.9844V18.1957H42.1094V24.6522C42.1094 25.087 41.849 25.3043 41.3281 25.3043C40.8594 25.3043 40.625 25.087 40.625 24.6522V18.1957H38.6719V23.8043C38.6719 24.587 38.6979 25.0652 38.75 25.2391C38.75 25.413 38.8021 25.6304 38.9062 25.8913ZM31.875 21.2609C31.875 20.4783 31.9531 19.8478 32.1094 19.3696C32.2656 18.9783 32.5521 18.6304 32.9688 18.3261C33.3854 18.0652 33.9062 17.9348 34.5312 17.9348C35.1042 17.9348 35.5729 18.0217 35.9375 18.1957C36.3021 18.3261 36.5885 18.5435 36.7969 18.8478C37.0052 19.0652 37.1615 19.3478 37.2656 19.6957C37.3177 19.913 37.3438 20.3696 37.3438 21.0652V23.1522C37.3438 24.0217 37.3177 24.587 37.2656 24.8478C37.2135 25.1522 37.0573 25.4783 36.7969 25.8261C36.6406 26.0435 36.3542 26.2826 35.9375 26.5435C35.5208 26.6739 35.1042 26.7391 34.6875 26.7391C34.1667 26.7391 33.6979 26.6739 33.2812 26.5435C32.9167 26.413 32.6302 26.2174 32.4219 25.9565C32.2135 25.6087 32.0833 25.3043 32.0312 25.0435C31.9271 24.6087 31.875 24.0652 31.875 23.413V21.2609ZM33.6719 24.5217C33.6719 24.7391 33.763 24.9348 33.9453 25.1087C34.1276 25.2826 34.349 25.3696 34.6094 25.3696C35.2344 25.3696 35.5469 25.087 35.5469 24.5217V20.1522C35.5469 19.587 35.2344 19.3043 34.6094 19.3043C33.9844 19.3043 33.6719 19.587 33.6719 20.1522V24.5217ZM27.2656 26.7391H29.4531V20.413L32.0312 15H29.6875L28.2812 19.0435L26.875 15H24.5312L27.2656 20.413V26.7391Z" fill="#FFCB00"/>
</svg>
